<?xml version="1.0" encoding="utf-8"?>
<!-- Generator: Adobe Illustrator 19.0.0, SVG Export Plug-In . SVG Version: 6.00 Build 0)  -->
<svg version="1.1" id="Layer_1" xmlns="http://www.w3.org/2000/svg" xmlns:xlink="http://www.w3.org/1999/xlink" x="0px" y="0px"
	 viewBox="0 0 499 53.6" style="enable-background:new 0 0 499 53.6;" xml:space="preserve">
<style type="text/css">
	.st0{fill:#C42122;}
	.st1{fill:#010202;}
</style>
<g id="artwork">
	<g id="XMLID_28_">
		<g id="XMLID_29_">
			<g id="XMLID_42_">
				<path id="XMLID_51_" class="st0" d="M144.3,43.3c-4.2,0-6.9-1.9-6.9-4.5c0-2,1.6-3.7,6.9-3.7h7.6v2.2
					C151.9,41.3,149.3,43.3,144.3,43.3 M151.9,27.3h-7.2c-12.7,0-18,4.1-18,12.3s7.5,13.2,17.7,13.2c10.7,0,17.6-5.6,18-14.2
					c0.1-1.8,0.1-3.1,0.1-5.3s-0.1-3.8-0.1-5.6c-0.6-10.2-7.9-14-17.7-14c-6.1,0-11,1.5-11.9,1.6v8.8c1.2-0.3,5.6-1.8,9.5-1.8
					C147.7,22.2,151.8,23.4,151.9,27.3"/>
				<polygon id="XMLID_50_" class="st0" points="189.8,32.3 204.3,15.1 190.4,15.1 179,29.7 179,0 167.4,0 167.4,51.8 179,51.8 
					179,36.7 190.8,51.8 205.3,51.8 				"/>
				<path id="XMLID_47_" class="st0" d="M60.7,23.4c-5.1,0-8.5,3.8-8.5,9.8c0,5.9,3.5,9.7,8.5,9.7s8.5-3.8,8.5-9.7
					C69.2,27.2,65.7,23.4,60.7,23.4 M60.7,52.8c-11.6,0-20-7.6-20-19.5c0-12,8.5-19.6,20-19.6s20,7.6,20,19.6
					C80.8,45.2,72.3,52.8,60.7,52.8"/>
				<polygon id="XMLID_46_" class="st0" points="42.3,1.6 27.2,1.6 12.6,21.8 12.6,1.6 0,1.6 0,51.8 12.6,51.8 12.6,30 28.1,51.8 
					44.2,51.8 24.3,25.2 				"/>
				<path id="XMLID_43_" class="st0" d="M104.3,42.7c-5.1,0-8.5-3.8-8.5-9.7c0-6,3.5-9.8,8.5-9.8s8.6,3.8,8.6,9.8
					C113,39.1,109.3,42.7,104.3,42.7 M124,0h-11.6v16c-0.6-0.4-4-2.3-8.6-2.3c-11.1,0-19.5,7.6-19.5,19.6c0,11.9,8.5,19.5,20,19.5
					c13.2,0,19.6-9.2,19.6-21.1L124,0L124,0z"/>
			</g>
			<g id="XMLID_30_">
				<path id="XMLID_41_" class="st1" d="M272.1,51.8L269,12.4l-15.7,39.7h-5.1l-15.7-39.7l-3.1,39.4h-6.3l4-49.5h8.3l15.4,40.5
					l15.5-40.5h8.2l3.8,49.5H272.1z"/>
				<path id="XMLID_38_" class="st1" d="M299,52.5c-9.1,0-15.7-6.6-15.7-17.9s6.6-17.9,15.7-17.9c9.2,0,16,6.6,16,17.9
					C314.9,46.1,308.2,52.5,299,52.5z M299,22.2c-6.1,0-9.2,5.3-9.2,12.4c0,7,3.2,12.4,9.2,12.4c6.3,0,9.5-5.3,9.5-12.4
					C308.5,27.8,305.3,22.2,299,22.2z"/>
				<path id="XMLID_37_" class="st1" d="M362.4,51.8V28.5c0-3.5-1.3-5.9-5-5.9c-3.4,0-6.6,2.2-9.7,5.6v23.7h-6.4V28.5
					c0-3.5-1.3-5.9-5-5.9c-3.4,0-6.6,2.2-9.7,5.6v23.7h-6.4V17.7h5.1l0.7,5c3.2-2.9,7.2-5.7,11.9-5.7c5,0,7.8,2.2,9.1,5.7
					c3.1-2.9,7.3-5.7,12-5.7c6.6,0,9.7,3.8,9.7,10.1V52h-6.3L362.4,51.8L362.4,51.8z"/>
				<path id="XMLID_34_" class="st1" d="M391.2,52.5c-8.9,0-15.8-5.4-15.8-18c0-11,6.4-17.7,15.1-17.7c10,0,14.5,7.6,14.5,17.1v1.3
					h-23.3c0.1,7.9,4,11.7,10,11.7c5,0,8.5-1.9,12.3-4.8l0.9,5.7C401.1,50.8,396.7,52.5,391.2,52.5z M382,30.6h16.5
					c-0.7-5.6-3.2-8.6-8.2-8.6C386.4,21.9,383,24.9,382,30.6z"/>
				<path id="XMLID_33_" class="st1" d="M433,51.8V28.5c0-3.5-1.5-5.9-5.3-5.9c-3.4,0-6.9,2.2-10,5.6v23.7h-6.4V17.7h5.1l0.7,5
					c3.2-2.9,7.2-5.7,12.1-5.7c6.4,0,10,3.8,10,10.1V52H433V51.8z"/>
				<path id="XMLID_32_" class="st1" d="M459.5,52.4c-6,0-10-2.2-10-9.1V23h-5.1v-5.4h5.1V6.3l6.3-0.9v12.3h7.3l0.9,5.4h-8.2v19.2
					c0,2.8,1.2,4.5,4.7,4.5c1.2,0,2.2,0,2.9-0.1l0.9,5.4C463.3,52.2,461.7,52.4,459.5,52.4z"/>
				<path id="XMLID_31_" class="st1" d="M482.5,52.5c-4.5,0-9.5-1.6-12.4-3.2l0.9-6c3.2,2.2,7.3,4,12,4c4.4,0,7-1.6,7-4.5
					c0-3.2-1.9-4.2-8-5.9c-8-2-11.3-4.4-11.3-10.5c0-5.4,4.5-9.5,12-9.5c4.2,0,8,0.9,11.3,2.3l-1,6c-3.1-1.8-6.9-2.9-10.4-2.9
					c-3.8,0-5.9,1.5-5.9,4c0,2.3,1.8,3.7,7.2,5c8.5,2.2,12.3,4.5,12.3,11.1C496,48.6,491.3,52.5,482.5,52.5z"/>
			</g>
		</g>
	</g>
</g>
</svg>
